<svg xmlns="http://www.w3.org/2000/svg" xml:space="preserve" width="2000" height="545" data-id="lg_JM1qRzmZNNBP3bKf6B" data-version="1"><g data-padding="20"><g transform="translate(10 14.73)scale(.94595)"><path fill="#fff" d="m915.081 396.918-51.95.29q-1.42 0-1.42-1.42l.57-199.15q0-1.13 1.13-1.13l54.21-.29q16.14-.42 29.16 7.36 13.17 7.79 21.02 21.02 7.86 13.24 7.86 29.23v83.23q0 16.7-8.07 30.57-8.21 13.73-21.8 21.87t-30.71 8.42m2.54-167.02-20.24.28-.28 131.36h17.98q10.75 0 18.11-7.5 7.37-7.51 7.37-17.98v-83.51q0-9.2-6.8-16.07-6.79-6.86-16.14-6.58m71.06 165.89 35.95-199.15q.29-1.13 1.42-1.13h42.04q1.13 0 1.41 1.13l34.54 199.15q.14 1.42-1.13 1.42h-32.13q-1.42 0-1.56-1.42l-3.11-21.23h-39.5l-3.11 21.23q-.14 1.42-1.42 1.42h-32.27q-1.13 0-1.13-1.42m71.62-52.23-11.89-81.39-1.7-10.75-1.27 10.75-13.02 81.39Zm93.42 53.65h-29.02q-2.26 0-2.26-1.99l-.28-197.45q0-2.26 2.26-2.26h26.19l48.97 114.22-1.41-111.96q0-2.26 2.54-2.26h28.74q1.7 0 1.7 2.26l.28 197.74q0 1.7-1.42 1.7h-25.47l-50.25-106.73 2.12 104.46q0 2.27-2.69 2.27" font-family="Bayon" font-size="289.883"/><path fill="#fff" d="M1000.071 537.708h-3.56v-14.21h3.56Zm0-14.21h-3.56q0-2.15.98-3.82.97-1.66 2.74-2.58 1.76-.92 4.03-.92v3.09q-1.96 0-3.08 1.1-1.11 1.09-1.11 3.13m-3.56 14.17h3.56q0 2.03 1.11 3.15 1.12 1.11 3.08 1.11v3.1q-2.27 0-4.03-.94-1.77-.94-2.74-2.59-.98-1.64-.98-3.83m15.65-13.82-3.25.67q-.23-2.47-1.46-3.86-1.24-1.39-3.23-1.39v-3.09q3.32 0 5.42 2.04 2.09 2.03 2.52 5.63m-3.25 12.84 3.25.63q-.43 3.64-2.52 5.67-2.1 2.04-5.42 2.04v-3.1q1.99 0 3.23-1.39 1.23-1.39 1.46-3.85m22.04.98h-3.56v-14.17h3.56Zm-11.9 0h-3.56v-14.17h3.56Zm11.9-14.13h-3.56q0-2.04-1.12-3.13-1.11-1.1-3.07-1.1v-3.09q2.31 0 4.05.92t2.72 2.58q.98 1.67.98 3.82m-11.9 0h-3.56q0-2.15.98-3.82.98-1.66 2.74-2.58t4.03-.92v3.09q-1.96 0-3.07 1.1-1.12 1.09-1.12 3.13m8.34 14.09h3.56q0 2.19-.98 3.83-.98 1.65-2.72 2.59t-4.05.94v-3.1q1.96 0 3.07-1.11 1.12-1.12 1.12-3.15m-11.9 0h3.56q0 2.03 1.12 3.15 1.11 1.11 3.07 1.11v3.1q-2.27 0-4.03-.94t-2.74-2.59q-.98-1.64-.98-3.83m34.05-.55h-3.56v-12.95h3.56Zm-7.71 7.32h-3.88v-3.09h3.88Zm0-24.5h-3.88v-3.09h3.88Zm0 0h-3.88v-3.09h3.88Zm7.71 4.23h-3.56q0-2.04-1.1-3.14-1.09-1.09-3.05-1.09v-3.09q2.27 0 4.01.92t2.72 2.58.98 3.82m-3.56 12.91h3.56q0 2.19-.98 3.84-.98 1.64-2.72 2.58t-4.01.94v-3.09q1.96 0 3.05-1.12 1.1-1.11 1.1-3.15m-6.97 7.36h-3.56v-27.59h3.56Zm18.98 0h-3.56v-27.59h3.56Zm20.59 0h-3.48l-11.04-27.59h3.48Zm-11.62 0h-3.57v-27.59h3.57Zm12.64 0h-3.57v-27.59h3.57Zm19.72-11.59h-7.98v-3.09h7.98Zm0 4.9h-3.56v-7.87h3.56Zm-11.86 0h-3.56v-14.21h3.56Zm0-14.21h-3.56q0-2.15.98-3.82.98-1.66 2.74-2.58t4.03-.92v3.09q-1.96 0-3.07 1.1-1.12 1.09-1.12 3.13m-3.56 14.17h3.56q0 2.03 1.12 3.15 1.11 1.11 3.07 1.11v3.1q-2.27 0-4.03-.94t-2.74-2.59q-.98-1.64-.98-3.83m15.66-13.82-3.25.67q-.24-2.47-1.47-3.86t-3.23-1.39v-3.09q3.33 0 5.42 2.04 2.1 2.03 2.53 5.63m-3.8 13.82h3.56q0 2.19-.98 3.83-.98 1.65-2.72 2.59t-4.01.94v-3.1q1.96 0 3.05-1.11 1.1-1.12 1.1-3.15" font-family="Akshar" font-size="39.138"/><circle cx="589.21" cy="-112.102" r="71.432" fill="none" stroke="#fff" stroke-width="6" paint-order="stroke" transform="matrix(1.1 0 0 1.1 400.27 201.86)" vector-effect="non-scaling-stroke"/><path fill="#fff" d="m1085.11 100.903-6.437 9.871-30.323-84.366-22.422 62.408-7.053-17.69-22.643 59.682h104.4Z" vector-effect="non-scaling-stroke"/></g><path fill="transparent" stroke="transparent" d="M815 0h370v545H815z"/></g></svg>